<?xml version="1.0" encoding="utf-8" standalone="no"?>
<!DOCTYPE svg PUBLIC "-//W3C//DTD SVG 1.1//EN"
  "http://www.w3.org/Graphics/SVG/1.1/DTD/svg11.dtd">
<!-- Created with matplotlib (https://matplotlib.org/) -->
<svg height="720pt" version="1.1" viewBox="0 0 720 720" width="720pt" xmlns="http://www.w3.org/2000/svg" xmlns:xlink="http://www.w3.org/1999/xlink">
 <defs>
  <style type="text/css">
*{stroke-linecap:butt;stroke-linejoin:round;}
  </style>
 </defs>
 <g id="figure_1">
  <g id="patch_1">
   <path d="M 0 720 
L 720 720 
L 720 0 
L 0 0 
z
" style="fill:#ffffff;"/>
  </g>
  <g id="axes_1">
   <g id="patch_2">
    <path d="M 47.72 675.592 
L 697.4599 675.592 
L 697.4599 27.79125 
L 47.72 27.79125 
z
" style="fill:#ffffff;"/>
   </g>
   <g id="patch_3">
    <path clip-path="url(#p99e657275f)" d="M 48.6482 675.592 
L 56.073799 675.592 
L 56.073799 671.614309 
L 48.6482 671.614309 
z
" style="fill:#808080;opacity:0.2;"/>
   </g>
   <g id="patch_4">
    <path clip-path="url(#p99e657275f)" d="M 57.930198 675.592 
L 65.355797 675.592 
L 65.355797 665.647774 
L 57.930198 665.647774 
z
" style="fill:#808080;opacity:0.2;"/>
   </g>
   <g id="patch_5">
    <path clip-path="url(#p99e657275f)" d="M 67.212197 675.592 
L 74.637796 675.592 
L 74.637796 669.625464 
L 67.212197 669.625464 
z
" style="fill:#808080;opacity:0.2;"/>
   </g>
   <g id="patch_6">
    <path clip-path="url(#p99e657275f)" d="M 76.494196 675.592 
L 83.919794 675.592 
L 83.919794 671.614309 
L 76.494196 671.614309 
z
" style="fill:#808080;opacity:0.2;"/>
   </g>
   <g id="patch_7">
    <path clip-path="url(#p99e657275f)" d="M 85.776194 675.592 
L 93.201793 675.592 
L 93.201793 669.625464 
L 85.776194 669.625464 
z
" style="fill:#808080;opacity:0.2;"/>
   </g>
   <g id="patch_8">
    <path clip-path="url(#p99e657275f)" d="M 95.058193 675.592 
L 102.483792 675.592 
L 102.483792 659.681238 
L 95.058193 659.681238 
z
" style="fill:#808080;opacity:0.2;"/>
   </g>
   <g id="patch_9">
    <path clip-path="url(#p99e657275f)" d="M 104.340191 675.592 
L 111.76579 675.592 
L 111.76579 654.709125 
L 104.340191 654.709125 
z
" style="fill:#808080;opacity:0.2;"/>
   </g>
   <g id="patch_10">
    <path clip-path="url(#p99e657275f)" d="M 113.62219 675.592 
L 121.047789 675.592 
L 121.047789 662.664506 
L 113.62219 662.664506 
z
" style="fill:#808080;opacity:0.2;"/>
   </g>
   <g id="patch_11">
    <path clip-path="url(#p99e657275f)" d="M 122.904188 675.592 
L 130.329787 675.592 
L 130.329787 663.658928 
L 122.904188 663.658928 
z
" style="fill:#808080;opacity:0.2;"/>
   </g>
   <g id="patch_12">
    <path clip-path="url(#p99e657275f)" d="M 132.186187 675.592 
L 139.611786 675.592 
L 139.611786 654.709125 
L 132.186187 654.709125 
z
" style="fill:#808080;opacity:0.2;"/>
   </g>
   <g id="patch_13">
    <path clip-path="url(#p99e657275f)" d="M 141.468186 675.592 
L 148.893784 675.592 
L 148.893784 652.720279 
L 141.468186 652.720279 
z
" style="fill:#808080;opacity:0.2;"/>
   </g>
   <g id="patch_14">
    <path clip-path="url(#p99e657275f)" d="M 150.750184 675.592 
L 158.175783 675.592 
L 158.175783 642.776053 
L 150.750184 642.776053 
z
" style="fill:#808080;opacity:0.2;"/>
   </g>
   <g id="patch_15">
    <path clip-path="url(#p99e657275f)" d="M 160.032183 675.592 
L 167.457782 675.592 
L 167.457782 628.854136 
L 160.032183 628.854136 
z
" style="fill:#808080;opacity:0.2;"/>
   </g>
   <g id="patch_16">
    <path clip-path="url(#p99e657275f)" d="M 169.314181 675.592 
L 176.73978 675.592 
L 176.73978 592.060498 
L 169.314181 592.060498 
z
" style="fill:#808080;opacity:0.2;"/>
   </g>
   <g id="patch_17">
    <path clip-path="url(#p99e657275f)" d="M 178.59618 675.592 
L 186.021779 675.592 
L 186.021779 569.188778 
L 178.59618 569.188778 
z
" style="fill:#808080;opacity:0.2;"/>
   </g>
   <g id="patch_18">
    <path clip-path="url(#p99e657275f)" d="M 187.878178 675.592 
L 195.303777 675.592 
L 195.303777 557.255706 
L 187.878178 557.255706 
z
" style="fill:#808080;opacity:0.2;"/>
   </g>
   <g id="patch_19">
    <path clip-path="url(#p99e657275f)" d="M 197.160177 675.592 
L 204.585776 675.592 
L 204.585776 494.60708 
L 197.160177 494.60708 
z
" style="fill:#808080;opacity:0.2;"/>
   </g>
   <g id="patch_20">
    <path clip-path="url(#p99e657275f)" d="M 206.442176 675.592 
L 213.867774 675.592 
L 213.867774 436.930567 
L 206.442176 436.930567 
z
" style="fill:#808080;opacity:0.2;"/>
   </g>
   <g id="patch_21">
    <path clip-path="url(#p99e657275f)" d="M 215.724174 675.592 
L 223.149773 675.592 
L 223.149773 342.460417 
L 215.724174 342.460417 
z
" style="fill:#808080;opacity:0.2;"/>
   </g>
   <g id="patch_22">
    <path clip-path="url(#p99e657275f)" d="M 225.006173 675.592 
L 232.431772 675.592 
L 232.431772 218.157587 
L 225.006173 218.157587 
z
" style="fill:#808080;opacity:0.2;"/>
   </g>
   <g id="patch_23">
    <path clip-path="url(#p99e657275f)" d="M 234.288171 675.592 
L 241.71377 675.592 
L 241.71377 132.63724 
L 234.288171 132.63724 
z
" style="fill:#808080;opacity:0.2;"/>
   </g>
   <g id="patch_24">
    <path clip-path="url(#p99e657275f)" d="M 243.57017 675.592 
L 250.995769 675.592 
L 250.995769 140.592621 
L 243.57017 140.592621 
z
" style="fill:#808080;opacity:0.2;"/>
   </g>
   <g id="patch_25">
    <path clip-path="url(#p99e657275f)" d="M 252.852168 675.592 
L 260.277767 675.592 
L 260.277767 123.687437 
L 252.852168 123.687437 
z
" style="fill:#808080;opacity:0.2;"/>
   </g>
   <g id="patch_26">
    <path clip-path="url(#p99e657275f)" d="M 262.134167 675.592 
L 269.559766 675.592 
L 269.559766 114.737633 
L 262.134167 114.737633 
z
" style="fill:#808080;opacity:0.2;"/>
   </g>
   <g id="patch_27">
    <path clip-path="url(#p99e657275f)" d="M 271.416166 675.592 
L 278.841764 675.592 
L 278.841764 176.391836 
L 271.416166 176.391836 
z
" style="fill:#808080;opacity:0.2;"/>
   </g>
   <g id="patch_28">
    <path clip-path="url(#p99e657275f)" d="M 280.698164 675.592 
L 288.123763 675.592 
L 288.123763 223.1297 
L 280.698164 223.1297 
z
" style="fill:#808080;opacity:0.2;"/>
   </g>
   <g id="patch_29">
    <path clip-path="url(#p99e657275f)" d="M 289.980163 675.592 
L 297.405762 675.592 
L 297.405762 250.973534 
L 289.980163 250.973534 
z
" style="fill:#808080;opacity:0.2;"/>
   </g>
   <g id="patch_30">
    <path clip-path="url(#p99e657275f)" d="M 299.262161 675.592 
L 306.68776 675.592 
L 306.68776 279.811791 
L 299.262161 279.811791 
z
" style="fill:#808080;opacity:0.2;"/>
   </g>
   <g id="patch_31">
    <path clip-path="url(#p99e657275f)" d="M 308.54416 675.592 
L 315.969759 675.592 
L 315.969759 333.510613 
L 308.54416 333.510613 
z
" style="fill:#808080;opacity:0.2;"/>
   </g>
   <g id="patch_32">
    <path clip-path="url(#p99e657275f)" d="M 317.826158 675.592 
L 325.251757 675.592 
L 325.251757 362.348869 
L 317.826158 362.348869 
z
" style="fill:#808080;opacity:0.2;"/>
   </g>
   <g id="patch_33">
    <path clip-path="url(#p99e657275f)" d="M 327.108157 675.592 
L 334.533756 675.592 
L 334.533756 381.242899 
L 327.108157 381.242899 
z
" style="fill:#808080;opacity:0.2;"/>
   </g>
   <g id="patch_34">
    <path clip-path="url(#p99e657275f)" d="M 336.390156 675.592 
L 343.815754 675.592 
L 343.815754 429.969609 
L 336.390156 429.969609 
z
" style="fill:#808080;opacity:0.2;"/>
   </g>
   <g id="patch_35">
    <path clip-path="url(#p99e657275f)" d="M 345.672154 675.592 
L 353.097753 675.592 
L 353.097753 472.729782 
L 345.672154 472.729782 
z
" style="fill:#808080;opacity:0.2;"/>
   </g>
   <g id="patch_36">
    <path clip-path="url(#p99e657275f)" d="M 354.954153 675.592 
L 362.379752 675.592 
L 362.379752 483.668431 
L 354.954153 483.668431 
z
" style="fill:#808080;opacity:0.2;"/>
   </g>
   <g id="patch_37">
    <path clip-path="url(#p99e657275f)" d="M 364.236151 675.592 
L 371.66175 675.592 
L 371.66175 502.562461 
L 364.236151 502.562461 
z
" style="fill:#808080;opacity:0.2;"/>
   </g>
   <g id="patch_38">
    <path clip-path="url(#p99e657275f)" d="M 373.51815 675.592 
L 380.943749 675.592 
L 380.943749 512.506688 
L 373.51815 512.506688 
z
" style="fill:#808080;opacity:0.2;"/>
   </g>
   <g id="patch_39">
    <path clip-path="url(#p99e657275f)" d="M 382.800148 675.592 
L 390.225747 675.592 
L 390.225747 550.294748 
L 382.800148 550.294748 
z
" style="fill:#808080;opacity:0.2;"/>
   </g>
   <g id="patch_40">
    <path clip-path="url(#p99e657275f)" d="M 392.082147 675.592 
L 399.507746 675.592 
L 399.507746 563.222242 
L 392.082147 563.222242 
z
" style="fill:#808080;opacity:0.2;"/>
   </g>
   <g id="patch_41">
    <path clip-path="url(#p99e657275f)" d="M 401.364146 675.592 
L 408.789744 675.592 
L 408.789744 583.110695 
L 401.364146 583.110695 
z
" style="fill:#808080;opacity:0.2;"/>
   </g>
   <g id="patch_42">
    <path clip-path="url(#p99e657275f)" d="M 410.646144 675.592 
L 418.071743 675.592 
L 418.071743 567.199933 
L 410.646144 567.199933 
z
" style="fill:#808080;opacity:0.2;"/>
   </g>
   <g id="patch_43">
    <path clip-path="url(#p99e657275f)" d="M 419.928143 675.592 
L 427.353742 675.592 
L 427.353742 580.127427 
L 419.928143 580.127427 
z
" style="fill:#808080;opacity:0.2;"/>
   </g>
   <g id="patch_44">
    <path clip-path="url(#p99e657275f)" d="M 429.210141 675.592 
L 436.63574 675.592 
L 436.63574 588.082808 
L 429.210141 588.082808 
z
" style="fill:#808080;opacity:0.2;"/>
   </g>
   <g id="patch_45">
    <path clip-path="url(#p99e657275f)" d="M 438.49214 675.592 
L 445.917739 675.592 
L 445.917739 587.088385 
L 438.49214 587.088385 
z
" style="fill:#808080;opacity:0.2;"/>
   </g>
   <g id="patch_46">
    <path clip-path="url(#p99e657275f)" d="M 447.774138 675.592 
L 455.199737 675.592 
L 455.199737 609.960106 
L 447.774138 609.960106 
z
" style="fill:#808080;opacity:0.2;"/>
   </g>
   <g id="patch_47">
    <path clip-path="url(#p99e657275f)" d="M 457.056137 675.592 
L 464.481736 675.592 
L 464.481736 596.038189 
L 457.056137 596.038189 
z
" style="fill:#808080;opacity:0.2;"/>
   </g>
   <g id="patch_48">
    <path clip-path="url(#p99e657275f)" d="M 466.338136 675.592 
L 473.763734 675.592 
L 473.763734 604.987993 
L 466.338136 604.987993 
z
" style="fill:#808080;opacity:0.2;"/>
   </g>
   <g id="patch_49">
    <path clip-path="url(#p99e657275f)" d="M 475.620134 675.592 
L 483.045733 675.592 
L 483.045733 592.060498 
L 475.620134 592.060498 
z
" style="fill:#808080;opacity:0.2;"/>
   </g>
   <g id="patch_50">
    <path clip-path="url(#p99e657275f)" d="M 484.902133 675.592 
L 492.327732 675.592 
L 492.327732 604.987993 
L 484.902133 604.987993 
z
" style="fill:#808080;opacity:0.2;"/>
   </g>
   <g id="patch_51">
    <path clip-path="url(#p99e657275f)" d="M 494.184131 675.592 
L 501.60973 675.592 
L 501.60973 603.99357 
L 494.184131 603.99357 
z
" style="fill:#808080;opacity:0.2;"/>
   </g>
   <g id="patch_52">
    <path clip-path="url(#p99e657275f)" d="M 503.46613 675.592 
L 510.891729 675.592 
L 510.891729 602.004725 
L 503.46613 602.004725 
z
" style="fill:#808080;opacity:0.2;"/>
   </g>
   <g id="patch_53">
    <path clip-path="url(#p99e657275f)" d="M 512.748128 675.592 
L 520.173727 675.592 
L 520.173727 602.004725 
L 512.748128 602.004725 
z
" style="fill:#808080;opacity:0.2;"/>
   </g>
   <g id="patch_54">
    <path clip-path="url(#p99e657275f)" d="M 522.030127 675.592 
L 529.455726 675.592 
L 529.455726 602.004725 
L 522.030127 602.004725 
z
" style="fill:#808080;opacity:0.2;"/>
   </g>
   <g id="patch_55">
    <path clip-path="url(#p99e657275f)" d="M 531.312125 675.592 
L 538.737724 675.592 
L 538.737724 602.004725 
L 531.312125 602.004725 
z
" style="fill:#808080;opacity:0.2;"/>
   </g>
   <g id="patch_56">
    <path clip-path="url(#p99e657275f)" d="M 540.594124 675.592 
L 548.019723 675.592 
L 548.019723 575.155314 
L 540.594124 575.155314 
z
" style="fill:#808080;opacity:0.2;"/>
   </g>
   <g id="patch_57">
    <path clip-path="url(#p99e657275f)" d="M 549.876123 675.592 
L 557.301721 675.592 
L 557.301721 612.943374 
L 549.876123 612.943374 
z
" style="fill:#808080;opacity:0.2;"/>
   </g>
   <g id="patch_58">
    <path clip-path="url(#p99e657275f)" d="M 559.158121 675.592 
L 566.58372 675.592 
L 566.58372 584.105117 
L 559.158121 584.105117 
z
" style="fill:#808080;opacity:0.2;"/>
   </g>
   <g id="patch_59">
    <path clip-path="url(#p99e657275f)" d="M 568.44012 675.592 
L 575.865719 675.592 
L 575.865719 587.088385 
L 568.44012 587.088385 
z
" style="fill:#808080;opacity:0.2;"/>
   </g>
   <g id="patch_60">
    <path clip-path="url(#p99e657275f)" d="M 577.722118 675.592 
L 585.147717 675.592 
L 585.147717 567.199933 
L 577.722118 567.199933 
z
" style="fill:#808080;opacity:0.2;"/>
   </g>
   <g id="patch_61">
    <path clip-path="url(#p99e657275f)" d="M 587.004117 675.592 
L 594.429716 675.592 
L 594.429716 587.088385 
L 587.004117 587.088385 
z
" style="fill:#808080;opacity:0.2;"/>
   </g>
   <g id="patch_62">
    <path clip-path="url(#p99e657275f)" d="M 596.286115 675.592 
L 603.711714 675.592 
L 603.711714 587.088385 
L 596.286115 587.088385 
z
" style="fill:#808080;opacity:0.2;"/>
   </g>
   <g id="patch_63">
    <path clip-path="url(#p99e657275f)" d="M 605.568114 675.592 
L 612.993713 675.592 
L 612.993713 595.043766 
L 605.568114 595.043766 
z
" style="fill:#808080;opacity:0.2;"/>
   </g>
   <g id="patch_64">
    <path clip-path="url(#p99e657275f)" d="M 614.850113 675.592 
L 622.275711 675.592 
L 622.275711 593.054921 
L 614.850113 593.054921 
z
" style="fill:#808080;opacity:0.2;"/>
   </g>
   <g id="patch_65">
    <path clip-path="url(#p99e657275f)" d="M 624.132111 675.592 
L 631.55771 675.592 
L 631.55771 619.904332 
L 624.132111 619.904332 
z
" style="fill:#808080;opacity:0.2;"/>
   </g>
   <g id="patch_66">
    <path clip-path="url(#p99e657275f)" d="M 633.41411 675.592 
L 640.839709 675.592 
L 640.839709 607.971261 
L 633.41411 607.971261 
z
" style="fill:#808080;opacity:0.2;"/>
   </g>
   <g id="patch_67">
    <path clip-path="url(#p99e657275f)" d="M 642.696108 675.592 
L 650.121707 675.592 
L 650.121707 633.826249 
L 642.696108 633.826249 
z
" style="fill:#808080;opacity:0.2;"/>
   </g>
   <g id="patch_68">
    <path clip-path="url(#p99e657275f)" d="M 651.978107 675.592 
L 659.403706 675.592 
L 659.403706 648.742589 
L 651.978107 648.742589 
z
" style="fill:#808080;opacity:0.2;"/>
   </g>
   <g id="patch_69">
    <path clip-path="url(#p99e657275f)" d="M 661.260105 675.592 
L 668.685704 675.592 
L 668.685704 651.725857 
L 661.260105 651.725857 
z
" style="fill:#808080;opacity:0.2;"/>
   </g>
   <g id="patch_70">
    <path clip-path="url(#p99e657275f)" d="M 670.542104 675.592 
L 677.967703 675.592 
L 677.967703 630.842981 
L 670.542104 630.842981 
z
" style="fill:#808080;opacity:0.2;"/>
   </g>
   <g id="patch_71">
    <path clip-path="url(#p99e657275f)" d="M 679.824103 675.592 
L 687.249701 675.592 
L 687.249701 610.954529 
L 679.824103 610.954529 
z
" style="fill:#808080;opacity:0.2;"/>
   </g>
   <g id="patch_72">
    <path clip-path="url(#p99e657275f)" d="M 689.106101 675.592 
L 696.5317 675.592 
L 696.5317 624.876446 
L 689.106101 624.876446 
z
" style="fill:#808080;opacity:0.2;"/>
   </g>
   <g id="matplotlib.axis_1">
    <g id="xtick_1">
     <g id="line2d_1">
      <defs>
       <path d="M 0 0 
L 0 3.5 
" id="m6b1677a3ef" style="stroke:#000000;stroke-width:0.8;"/>
      </defs>
      <g>
       <use style="stroke:#000000;stroke-width:0.8;" x="47.72" xlink:href="#m6b1677a3ef" y="675.592"/>
      </g>
     </g>
     <g id="text_1">
      <!-- −5 -->
      <defs>
       <path d="M 10.59375 35.5 
L 73.1875 35.5 
L 73.1875 27.203125 
L 10.59375 27.203125 
z
" id="DejaVuSans-8722"/>
       <path d="M 10.796875 72.90625 
L 49.515625 72.90625 
L 49.515625 64.59375 
L 19.828125 64.59375 
L 19.828125 46.734375 
Q 21.96875 47.46875 24.109375 47.828125 
Q 26.265625 48.1875 28.421875 48.1875 
Q 40.625 48.1875 47.75 41.5 
Q 54.890625 34.8125 54.890625 23.390625 
Q 54.890625 11.625 47.5625 5.09375 
Q 40.234375 -1.421875 26.90625 -1.421875 
Q 22.3125 -1.421875 17.546875 -0.640625 
Q 12.796875 0.140625 7.71875 1.703125 
L 7.71875 11.625 
Q 12.109375 9.234375 16.796875 8.0625 
Q 21.484375 6.890625 26.703125 6.890625 
Q 35.15625 6.890625 40.078125 11.328125 
Q 45.015625 15.765625 45.015625 23.390625 
Q 45.015625 31 40.078125 35.4375 
Q 35.15625 39.890625 26.703125 39.890625 
Q 22.75 39.890625 18.8125 39.015625 
Q 14.890625 38.140625 10.796875 36.28125 
z
" id="DejaVuSans-53"/>
      </defs>
      <g transform="translate(40.348906 690.190437)scale(0.1 -0.1)">
       <use xlink:href="#DejaVuSans-8722"/>
       <use x="83.789062" xlink:href="#DejaVuSans-53"/>
      </g>
     </g>
    </g>
    <g id="xtick_2">
     <g id="line2d_2">
      <g>
       <use style="stroke:#000000;stroke-width:0.8;" x="140.539986" xlink:href="#m6b1677a3ef" y="675.592"/>
      </g>
     </g>
     <g id="text_2">
      <!-- −4 -->
      <defs>
       <path d="M 37.796875 64.3125 
L 12.890625 25.390625 
L 37.796875 25.390625 
z
M 35.203125 72.90625 
L 47.609375 72.90625 
L 47.609375 25.390625 
L 58.015625 25.390625 
L 58.015625 17.1875 
L 47.609375 17.1875 
L 47.609375 0 
L 37.796875 0 
L 37.796875 17.1875 
L 4.890625 17.1875 
L 4.890625 26.703125 
z
" id="DejaVuSans-52"/>
      </defs>
      <g transform="translate(133.168892 690.190437)scale(0.1 -0.1)">
       <use xlink:href="#DejaVuSans-8722"/>
       <use x="83.789062" xlink:href="#DejaVuSans-52"/>
      </g>
     </g>
    </g>
    <g id="xtick_3">
     <g id="line2d_3">
      <g>
       <use style="stroke:#000000;stroke-width:0.8;" x="233.359971" xlink:href="#m6b1677a3ef" y="675.592"/>
      </g>
     </g>
     <g id="text_3">
      <!-- −3 -->
      <defs>
       <path d="M 40.578125 39.3125 
Q 47.65625 37.796875 51.625 33 
Q 55.609375 28.21875 55.609375 21.1875 
Q 55.609375 10.40625 48.1875 4.484375 
Q 40.765625 -1.421875 27.09375 -1.421875 
Q 22.515625 -1.421875 17.65625 -0.515625 
Q 12.796875 0.390625 7.625 2.203125 
L 7.625 11.71875 
Q 11.71875 9.328125 16.59375 8.109375 
Q 21.484375 6.890625 26.8125 6.890625 
Q 36.078125 6.890625 40.9375 10.546875 
Q 45.796875 14.203125 45.796875 21.1875 
Q 45.796875 27.640625 41.28125 31.265625 
Q 36.765625 34.90625 28.71875 34.90625 
L 20.21875 34.90625 
L 20.21875 43.015625 
L 29.109375 43.015625 
Q 36.375 43.015625 40.234375 45.921875 
Q 44.09375 48.828125 44.09375 54.296875 
Q 44.09375 59.90625 40.109375 62.90625 
Q 36.140625 65.921875 28.71875 65.921875 
Q 24.65625 65.921875 20.015625 65.03125 
Q 15.375 64.15625 9.8125 62.3125 
L 9.8125 71.09375 
Q 15.4375 72.65625 20.34375 73.4375 
Q 25.25 74.21875 29.59375 74.21875 
Q 40.828125 74.21875 47.359375 69.109375 
Q 53.90625 64.015625 53.90625 55.328125 
Q 53.90625 49.265625 50.4375 45.09375 
Q 46.96875 40.921875 40.578125 39.3125 
z
" id="DejaVuSans-51"/>
      </defs>
      <g transform="translate(225.988878 690.190437)scale(0.1 -0.1)">
       <use xlink:href="#DejaVuSans-8722"/>
       <use x="83.789062" xlink:href="#DejaVuSans-51"/>
      </g>
     </g>
    </g>
    <g id="xtick_4">
     <g id="line2d_4">
      <g>
       <use style="stroke:#000000;stroke-width:0.8;" x="326.179957" xlink:href="#m6b1677a3ef" y="675.592"/>
      </g>
     </g>
     <g id="text_4">
      <!-- −2 -->
      <defs>
       <path d="M 19.1875 8.296875 
L 53.609375 8.296875 
L 53.609375 0 
L 7.328125 0 
L 7.328125 8.296875 
Q 12.9375 14.109375 22.625 23.890625 
Q 32.328125 33.6875 34.8125 36.53125 
Q 39.546875 41.84375 41.421875 45.53125 
Q 43.3125 49.21875 43.3125 52.78125 
Q 43.3125 58.59375 39.234375 62.25 
Q 35.15625 65.921875 28.609375 65.921875 
Q 23.96875 65.921875 18.8125 64.3125 
Q 13.671875 62.703125 7.8125 59.421875 
L 7.8125 69.390625 
Q 13.765625 71.78125 18.9375 73 
Q 24.125 74.21875 28.421875 74.21875 
Q 39.75 74.21875 46.484375 68.546875 
Q 53.21875 62.890625 53.21875 53.421875 
Q 53.21875 48.921875 51.53125 44.890625 
Q 49.859375 40.875 45.40625 35.40625 
Q 44.1875 33.984375 37.640625 27.21875 
Q 31.109375 20.453125 19.1875 8.296875 
z
" id="DejaVuSans-50"/>
      </defs>
      <g transform="translate(318.808863 690.190437)scale(0.1 -0.1)">
       <use xlink:href="#DejaVuSans-8722"/>
       <use x="83.789062" xlink:href="#DejaVuSans-50"/>
      </g>
     </g>
    </g>
    <g id="xtick_5">
     <g id="line2d_5">
      <g>
       <use style="stroke:#000000;stroke-width:0.8;" x="418.999943" xlink:href="#m6b1677a3ef" y="675.592"/>
      </g>
     </g>
     <g id="text_5">
      <!-- −1 -->
      <defs>
       <path d="M 12.40625 8.296875 
L 28.515625 8.296875 
L 28.515625 63.921875 
L 10.984375 60.40625 
L 10.984375 69.390625 
L 28.421875 72.90625 
L 38.28125 72.90625 
L 38.28125 8.296875 
L 54.390625 8.296875 
L 54.390625 0 
L 12.40625 0 
z
" id="DejaVuSans-49"/>
      </defs>
      <g transform="translate(411.628849 690.190437)scale(0.1 -0.1)">
       <use xlink:href="#DejaVuSans-8722"/>
       <use x="83.789062" xlink:href="#DejaVuSans-49"/>
      </g>
     </g>
    </g>
    <g id="xtick_6">
     <g id="line2d_6">
      <g>
       <use style="stroke:#000000;stroke-width:0.8;" x="511.819929" xlink:href="#m6b1677a3ef" y="675.592"/>
      </g>
     </g>
     <g id="text_6">
      <!-- 0 -->
      <defs>
       <path d="M 31.78125 66.40625 
Q 24.171875 66.40625 20.328125 58.90625 
Q 16.5 51.421875 16.5 36.375 
Q 16.5 21.390625 20.328125 13.890625 
Q 24.171875 6.390625 31.78125 6.390625 
Q 39.453125 6.390625 43.28125 13.890625 
Q 47.125 21.390625 47.125 36.375 
Q 47.125 51.421875 43.28125 58.90625 
Q 39.453125 66.40625 31.78125 66.40625 
z
M 31.78125 74.21875 
Q 44.046875 74.21875 50.515625 64.515625 
Q 56.984375 54.828125 56.984375 36.375 
Q 56.984375 17.96875 50.515625 8.265625 
Q 44.046875 -1.421875 31.78125 -1.421875 
Q 19.53125 -1.421875 13.0625 8.265625 
Q 6.59375 17.96875 6.59375 36.375 
Q 6.59375 54.828125 13.0625 64.515625 
Q 19.53125 74.21875 31.78125 74.21875 
z
" id="DejaVuSans-48"/>
      </defs>
      <g transform="translate(508.638679 690.190437)scale(0.1 -0.1)">
       <use xlink:href="#DejaVuSans-48"/>
      </g>
     </g>
    </g>
    <g id="xtick_7">
     <g id="line2d_7">
      <g>
       <use style="stroke:#000000;stroke-width:0.8;" x="604.639914" xlink:href="#m6b1677a3ef" y="675.592"/>
      </g>
     </g>
     <g id="text_7">
      <!-- 1 -->
      <g transform="translate(601.458664 690.190437)scale(0.1 -0.1)">
       <use xlink:href="#DejaVuSans-49"/>
      </g>
     </g>
    </g>
    <g id="xtick_8">
     <g id="line2d_8">
      <g>
       <use style="stroke:#000000;stroke-width:0.8;" x="697.4599" xlink:href="#m6b1677a3ef" y="675.592"/>
      </g>
     </g>
     <g id="text_8">
      <!-- 2 -->
      <g transform="translate(694.27865 690.190437)scale(0.1 -0.1)">
       <use xlink:href="#DejaVuSans-50"/>
      </g>
     </g>
    </g>
    <g id="text_9">
     <!-- ln $K_\mathrm{S}$ -->
     <defs>
      <path d="M 9.421875 75.984375 
L 18.40625 75.984375 
L 18.40625 0 
L 9.421875 0 
z
" id="DejaVuSans-108"/>
      <path d="M 54.890625 33.015625 
L 54.890625 0 
L 45.90625 0 
L 45.90625 32.71875 
Q 45.90625 40.484375 42.875 44.328125 
Q 39.84375 48.1875 33.796875 48.1875 
Q 26.515625 48.1875 22.3125 43.546875 
Q 18.109375 38.921875 18.109375 30.90625 
L 18.109375 0 
L 9.078125 0 
L 9.078125 54.6875 
L 18.109375 54.6875 
L 18.109375 46.1875 
Q 21.34375 51.125 25.703125 53.5625 
Q 30.078125 56 35.796875 56 
Q 45.21875 56 50.046875 50.171875 
Q 54.890625 44.34375 54.890625 33.015625 
z
" id="DejaVuSans-110"/>
      <path id="DejaVuSans-32"/>
      <path d="M 16.890625 72.90625 
L 26.8125 72.90625 
L 20.796875 42.1875 
L 59.078125 72.90625 
L 72.21875 72.90625 
L 28.90625 38.09375 
L 60.59375 0 
L 48.578125 0 
L 19.484375 35.5 
L 12.59375 0 
L 2.6875 0 
z
" id="DejaVuSans-Oblique-75"/>
      <path d="M 53.515625 70.515625 
L 53.515625 60.890625 
Q 47.90625 63.578125 42.921875 64.890625 
Q 37.9375 66.21875 33.296875 66.21875 
Q 25.25 66.21875 20.875 63.09375 
Q 16.5 59.96875 16.5 54.203125 
Q 16.5 49.359375 19.40625 46.890625 
Q 22.3125 44.4375 30.421875 42.921875 
L 36.375 41.703125 
Q 47.40625 39.59375 52.65625 34.296875 
Q 57.90625 29 57.90625 20.125 
Q 57.90625 9.515625 50.796875 4.046875 
Q 43.703125 -1.421875 29.984375 -1.421875 
Q 24.8125 -1.421875 18.96875 -0.25 
Q 13.140625 0.921875 6.890625 3.21875 
L 6.890625 13.375 
Q 12.890625 10.015625 18.65625 8.296875 
Q 24.421875 6.59375 29.984375 6.59375 
Q 38.421875 6.59375 43.015625 9.90625 
Q 47.609375 13.234375 47.609375 19.390625 
Q 47.609375 24.75 44.3125 27.78125 
Q 41.015625 30.8125 33.5 32.328125 
L 27.484375 33.5 
Q 16.453125 35.6875 11.515625 40.375 
Q 6.59375 45.0625 6.59375 53.421875 
Q 6.59375 63.09375 13.40625 68.65625 
Q 20.21875 74.21875 32.171875 74.21875 
Q 37.3125 74.21875 42.625 73.28125 
Q 47.953125 72.359375 53.515625 70.515625 
z
" id="DejaVuSans-83"/>
     </defs>
     <g transform="translate(360.78995 703.868562)scale(0.1 -0.1)">
      <use transform="translate(0 0.015625)" xlink:href="#DejaVuSans-108"/>
      <use transform="translate(27.783203 0.015625)" xlink:href="#DejaVuSans-110"/>
      <use transform="translate(91.162109 0.015625)" xlink:href="#DejaVuSans-32"/>
      <use transform="translate(122.949219 0.015625)" xlink:href="#DejaVuSans-Oblique-75"/>
      <use transform="translate(188.525391 -16.390625)scale(0.7)" xlink:href="#DejaVuSans-83"/>
     </g>
    </g>
   </g>
   <g id="matplotlib.axis_2">
    <g id="ytick_1">
     <g id="line2d_9">
      <defs>
       <path d="M 0 0 
L -3.5 0 
" id="m45931ec2a1" style="stroke:#000000;stroke-width:0.8;"/>
      </defs>
      <g>
       <use style="stroke:#000000;stroke-width:0.8;" x="47.72" xlink:href="#m45931ec2a1" y="675.592"/>
      </g>
     </g>
     <g id="text_10">
      <!-- 0.0 -->
      <defs>
       <path d="M 10.6875 12.40625 
L 21 12.40625 
L 21 0 
L 10.6875 0 
z
" id="DejaVuSans-46"/>
      </defs>
      <g transform="translate(24.816875 679.391219)scale(0.1 -0.1)">
       <use xlink:href="#DejaVuSans-48"/>
       <use x="63.623047" xlink:href="#DejaVuSans-46"/>
       <use x="95.410156" xlink:href="#DejaVuSans-48"/>
      </g>
     </g>
    </g>
    <g id="ytick_2">
     <g id="line2d_10">
      <g>
       <use style="stroke:#000000;stroke-width:0.8;" x="47.72" xlink:href="#m45931ec2a1" y="573.236078"/>
      </g>
     </g>
     <g id="text_11">
      <!-- 0.1 -->
      <g transform="translate(24.816875 577.035297)scale(0.1 -0.1)">
       <use xlink:href="#DejaVuSans-48"/>
       <use x="63.623047" xlink:href="#DejaVuSans-46"/>
       <use x="95.410156" xlink:href="#DejaVuSans-49"/>
      </g>
     </g>
    </g>
    <g id="ytick_3">
     <g id="line2d_11">
      <g>
       <use style="stroke:#000000;stroke-width:0.8;" x="47.72" xlink:href="#m45931ec2a1" y="470.880156"/>
      </g>
     </g>
     <g id="text_12">
      <!-- 0.2 -->
      <g transform="translate(24.816875 474.679375)scale(0.1 -0.1)">
       <use xlink:href="#DejaVuSans-48"/>
       <use x="63.623047" xlink:href="#DejaVuSans-46"/>
       <use x="95.410156" xlink:href="#DejaVuSans-50"/>
      </g>
     </g>
    </g>
    <g id="ytick_4">
     <g id="line2d_12">
      <g>
       <use style="stroke:#000000;stroke-width:0.8;" x="47.72" xlink:href="#m45931ec2a1" y="368.524234"/>
      </g>
     </g>
     <g id="text_13">
      <!-- 0.3 -->
      <g transform="translate(24.816875 372.323453)scale(0.1 -0.1)">
       <use xlink:href="#DejaVuSans-48"/>
       <use x="63.623047" xlink:href="#DejaVuSans-46"/>
       <use x="95.410156" xlink:href="#DejaVuSans-51"/>
      </g>
     </g>
    </g>
    <g id="ytick_5">
     <g id="line2d_13">
      <g>
       <use style="stroke:#000000;stroke-width:0.8;" x="47.72" xlink:href="#m45931ec2a1" y="266.168312"/>
      </g>
     </g>
     <g id="text_14">
      <!-- 0.4 -->
      <g transform="translate(24.816875 269.967531)scale(0.1 -0.1)">
       <use xlink:href="#DejaVuSans-48"/>
       <use x="63.623047" xlink:href="#DejaVuSans-46"/>
       <use x="95.410156" xlink:href="#DejaVuSans-52"/>
      </g>
     </g>
    </g>
    <g id="ytick_6">
     <g id="line2d_14">
      <g>
       <use style="stroke:#000000;stroke-width:0.8;" x="47.72" xlink:href="#m45931ec2a1" y="163.81239"/>
      </g>
     </g>
     <g id="text_15">
      <!-- 0.5 -->
      <g transform="translate(24.816875 167.611609)scale(0.1 -0.1)">
       <use xlink:href="#DejaVuSans-48"/>
       <use x="63.623047" xlink:href="#DejaVuSans-46"/>
       <use x="95.410156" xlink:href="#DejaVuSans-53"/>
      </g>
     </g>
    </g>
    <g id="ytick_7">
     <g id="line2d_15">
      <g>
       <use style="stroke:#000000;stroke-width:0.8;" x="47.72" xlink:href="#m45931ec2a1" y="61.456468"/>
      </g>
     </g>
     <g id="text_16">
      <!-- 0.6 -->
      <defs>
       <path d="M 33.015625 40.375 
Q 26.375 40.375 22.484375 35.828125 
Q 18.609375 31.296875 18.609375 23.390625 
Q 18.609375 15.53125 22.484375 10.953125 
Q 26.375 6.390625 33.015625 6.390625 
Q 39.65625 6.390625 43.53125 10.953125 
Q 47.40625 15.53125 47.40625 23.390625 
Q 47.40625 31.296875 43.53125 35.828125 
Q 39.65625 40.375 33.015625 40.375 
z
M 52.59375 71.296875 
L 52.59375 62.3125 
Q 48.875 64.0625 45.09375 64.984375 
Q 41.3125 65.921875 37.59375 65.921875 
Q 27.828125 65.921875 22.671875 59.328125 
Q 17.53125 52.734375 16.796875 39.40625 
Q 19.671875 43.65625 24.015625 45.921875 
Q 28.375 48.1875 33.59375 48.1875 
Q 44.578125 48.1875 50.953125 41.515625 
Q 57.328125 34.859375 57.328125 23.390625 
Q 57.328125 12.15625 50.6875 5.359375 
Q 44.046875 -1.421875 33.015625 -1.421875 
Q 20.359375 -1.421875 13.671875 8.265625 
Q 6.984375 17.96875 6.984375 36.375 
Q 6.984375 53.65625 15.1875 63.9375 
Q 23.390625 74.21875 37.203125 74.21875 
Q 40.921875 74.21875 44.703125 73.484375 
Q 48.484375 72.75 52.59375 71.296875 
z
" id="DejaVuSans-54"/>
      </defs>
      <g transform="translate(24.816875 65.255687)scale(0.1 -0.1)">
       <use xlink:href="#DejaVuSans-48"/>
       <use x="63.623047" xlink:href="#DejaVuSans-46"/>
       <use x="95.410156" xlink:href="#DejaVuSans-54"/>
      </g>
     </g>
    </g>
    <g id="text_17">
     <!-- Density of retained duplicates -->
     <defs>
      <path d="M 19.671875 64.796875 
L 19.671875 8.109375 
L 31.59375 8.109375 
Q 46.6875 8.109375 53.6875 14.9375 
Q 60.6875 21.78125 60.6875 36.53125 
Q 60.6875 51.171875 53.6875 57.984375 
Q 46.6875 64.796875 31.59375 64.796875 
z
M 9.8125 72.90625 
L 30.078125 72.90625 
Q 51.265625 72.90625 61.171875 64.09375 
Q 71.09375 55.28125 71.09375 36.53125 
Q 71.09375 17.671875 61.125 8.828125 
Q 51.171875 0 30.078125 0 
L 9.8125 0 
z
" id="DejaVuSans-68"/>
      <path d="M 56.203125 29.59375 
L 56.203125 25.203125 
L 14.890625 25.203125 
Q 15.484375 15.921875 20.484375 11.0625 
Q 25.484375 6.203125 34.421875 6.203125 
Q 39.59375 6.203125 44.453125 7.46875 
Q 49.3125 8.734375 54.109375 11.28125 
L 54.109375 2.78125 
Q 49.265625 0.734375 44.1875 -0.34375 
Q 39.109375 -1.421875 33.890625 -1.421875 
Q 20.796875 -1.421875 13.15625 6.1875 
Q 5.515625 13.8125 5.515625 26.8125 
Q 5.515625 40.234375 12.765625 48.109375 
Q 20.015625 56 32.328125 56 
Q 43.359375 56 49.78125 48.890625 
Q 56.203125 41.796875 56.203125 29.59375 
z
M 47.21875 32.234375 
Q 47.125 39.59375 43.09375 43.984375 
Q 39.0625 48.390625 32.421875 48.390625 
Q 24.90625 48.390625 20.390625 44.140625 
Q 15.875 39.890625 15.1875 32.171875 
z
" id="DejaVuSans-101"/>
      <path d="M 44.28125 53.078125 
L 44.28125 44.578125 
Q 40.484375 46.53125 36.375 47.5 
Q 32.28125 48.484375 27.875 48.484375 
Q 21.1875 48.484375 17.84375 46.4375 
Q 14.5 44.390625 14.5 40.28125 
Q 14.5 37.15625 16.890625 35.375 
Q 19.28125 33.59375 26.515625 31.984375 
L 29.59375 31.296875 
Q 39.15625 29.25 43.1875 25.515625 
Q 47.21875 21.78125 47.21875 15.09375 
Q 47.21875 7.46875 41.1875 3.015625 
Q 35.15625 -1.421875 24.609375 -1.421875 
Q 20.21875 -1.421875 15.453125 -0.5625 
Q 10.6875 0.296875 5.421875 2 
L 5.421875 11.28125 
Q 10.40625 8.6875 15.234375 7.390625 
Q 20.0625 6.109375 24.8125 6.109375 
Q 31.15625 6.109375 34.5625 8.28125 
Q 37.984375 10.453125 37.984375 14.40625 
Q 37.984375 18.0625 35.515625 20.015625 
Q 33.0625 21.96875 24.703125 23.78125 
L 21.578125 24.515625 
Q 13.234375 26.265625 9.515625 29.90625 
Q 5.8125 33.546875 5.8125 39.890625 
Q 5.8125 47.609375 11.28125 51.796875 
Q 16.75 56 26.8125 56 
Q 31.78125 56 36.171875 55.265625 
Q 40.578125 54.546875 44.28125 53.078125 
z
" id="DejaVuSans-115"/>
      <path d="M 9.421875 54.6875 
L 18.40625 54.6875 
L 18.40625 0 
L 9.421875 0 
z
M 9.421875 75.984375 
L 18.40625 75.984375 
L 18.40625 64.59375 
L 9.421875 64.59375 
z
" id="DejaVuSans-105"/>
      <path d="M 18.3125 70.21875 
L 18.3125 54.6875 
L 36.8125 54.6875 
L 36.8125 47.703125 
L 18.3125 47.703125 
L 18.3125 18.015625 
Q 18.3125 11.328125 20.140625 9.421875 
Q 21.96875 7.515625 27.59375 7.515625 
L 36.8125 7.515625 
L 36.8125 0 
L 27.59375 0 
Q 17.1875 0 13.234375 3.875 
Q 9.28125 7.765625 9.28125 18.015625 
L 9.28125 47.703125 
L 2.6875 47.703125 
L 2.6875 54.6875 
L 9.28125 54.6875 
L 9.28125 70.21875 
z
" id="DejaVuSans-116"/>
      <path d="M 32.171875 -5.078125 
Q 28.375 -14.84375 24.75 -17.8125 
Q 21.140625 -20.796875 15.09375 -20.796875 
L 7.90625 -20.796875 
L 7.90625 -13.28125 
L 13.1875 -13.28125 
Q 16.890625 -13.28125 18.9375 -11.515625 
Q 21 -9.765625 23.484375 -3.21875 
L 25.09375 0.875 
L 2.984375 54.6875 
L 12.5 54.6875 
L 29.59375 11.921875 
L 46.6875 54.6875 
L 56.203125 54.6875 
z
" id="DejaVuSans-121"/>
      <path d="M 30.609375 48.390625 
Q 23.390625 48.390625 19.1875 42.75 
Q 14.984375 37.109375 14.984375 27.296875 
Q 14.984375 17.484375 19.15625 11.84375 
Q 23.34375 6.203125 30.609375 6.203125 
Q 37.796875 6.203125 41.984375 11.859375 
Q 46.1875 17.53125 46.1875 27.296875 
Q 46.1875 37.015625 41.984375 42.703125 
Q 37.796875 48.390625 30.609375 48.390625 
z
M 30.609375 56 
Q 42.328125 56 49.015625 48.375 
Q 55.71875 40.765625 55.71875 27.296875 
Q 55.71875 13.875 49.015625 6.21875 
Q 42.328125 -1.421875 30.609375 -1.421875 
Q 18.84375 -1.421875 12.171875 6.21875 
Q 5.515625 13.875 5.515625 27.296875 
Q 5.515625 40.765625 12.171875 48.375 
Q 18.84375 56 30.609375 56 
z
" id="DejaVuSans-111"/>
      <path d="M 37.109375 75.984375 
L 37.109375 68.5 
L 28.515625 68.5 
Q 23.6875 68.5 21.796875 66.546875 
Q 19.921875 64.59375 19.921875 59.515625 
L 19.921875 54.6875 
L 34.71875 54.6875 
L 34.71875 47.703125 
L 19.921875 47.703125 
L 19.921875 0 
L 10.890625 0 
L 10.890625 47.703125 
L 2.296875 47.703125 
L 2.296875 54.6875 
L 10.890625 54.6875 
L 10.890625 58.5 
Q 10.890625 67.625 15.140625 71.796875 
Q 19.390625 75.984375 28.609375 75.984375 
z
" id="DejaVuSans-102"/>
      <path d="M 41.109375 46.296875 
Q 39.59375 47.171875 37.8125 47.578125 
Q 36.03125 48 33.890625 48 
Q 26.265625 48 22.1875 43.046875 
Q 18.109375 38.09375 18.109375 28.8125 
L 18.109375 0 
L 9.078125 0 
L 9.078125 54.6875 
L 18.109375 54.6875 
L 18.109375 46.1875 
Q 20.953125 51.171875 25.484375 53.578125 
Q 30.03125 56 36.53125 56 
Q 37.453125 56 38.578125 55.875 
Q 39.703125 55.765625 41.0625 55.515625 
z
" id="DejaVuSans-114"/>
      <path d="M 34.28125 27.484375 
Q 23.390625 27.484375 19.1875 25 
Q 14.984375 22.515625 14.984375 16.5 
Q 14.984375 11.71875 18.140625 8.90625 
Q 21.296875 6.109375 26.703125 6.109375 
Q 34.1875 6.109375 38.703125 11.40625 
Q 43.21875 16.703125 43.21875 25.484375 
L 43.21875 27.484375 
z
M 52.203125 31.203125 
L 52.203125 0 
L 43.21875 0 
L 43.21875 8.296875 
Q 40.140625 3.328125 35.546875 0.953125 
Q 30.953125 -1.421875 24.3125 -1.421875 
Q 15.921875 -1.421875 10.953125 3.296875 
Q 6 8.015625 6 15.921875 
Q 6 25.140625 12.171875 29.828125 
Q 18.359375 34.515625 30.609375 34.515625 
L 43.21875 34.515625 
L 43.21875 35.40625 
Q 43.21875 41.609375 39.140625 45 
Q 35.0625 48.390625 27.6875 48.390625 
Q 23 48.390625 18.546875 47.265625 
Q 14.109375 46.140625 10.015625 43.890625 
L 10.015625 52.203125 
Q 14.9375 54.109375 19.578125 55.046875 
Q 24.21875 56 28.609375 56 
Q 40.484375 56 46.34375 49.84375 
Q 52.203125 43.703125 52.203125 31.203125 
z
" id="DejaVuSans-97"/>
      <path d="M 45.40625 46.390625 
L 45.40625 75.984375 
L 54.390625 75.984375 
L 54.390625 0 
L 45.40625 0 
L 45.40625 8.203125 
Q 42.578125 3.328125 38.25 0.953125 
Q 33.9375 -1.421875 27.875 -1.421875 
Q 17.96875 -1.421875 11.734375 6.484375 
Q 5.515625 14.40625 5.515625 27.296875 
Q 5.515625 40.1875 11.734375 48.09375 
Q 17.96875 56 27.875 56 
Q 33.9375 56 38.25 53.625 
Q 42.578125 51.265625 45.40625 46.390625 
z
M 14.796875 27.296875 
Q 14.796875 17.390625 18.875 11.75 
Q 22.953125 6.109375 30.078125 6.109375 
Q 37.203125 6.109375 41.296875 11.75 
Q 45.40625 17.390625 45.40625 27.296875 
Q 45.40625 37.203125 41.296875 42.84375 
Q 37.203125 48.484375 30.078125 48.484375 
Q 22.953125 48.484375 18.875 42.84375 
Q 14.796875 37.203125 14.796875 27.296875 
z
" id="DejaVuSans-100"/>
      <path d="M 8.5 21.578125 
L 8.5 54.6875 
L 17.484375 54.6875 
L 17.484375 21.921875 
Q 17.484375 14.15625 20.5 10.265625 
Q 23.53125 6.390625 29.59375 6.390625 
Q 36.859375 6.390625 41.078125 11.03125 
Q 45.3125 15.671875 45.3125 23.6875 
L 45.3125 54.6875 
L 54.296875 54.6875 
L 54.296875 0 
L 45.3125 0 
L 45.3125 8.40625 
Q 42.046875 3.421875 37.71875 1 
Q 33.40625 -1.421875 27.6875 -1.421875 
Q 18.265625 -1.421875 13.375 4.4375 
Q 8.5 10.296875 8.5 21.578125 
z
M 31.109375 56 
z
" id="DejaVuSans-117"/>
      <path d="M 18.109375 8.203125 
L 18.109375 -20.796875 
L 9.078125 -20.796875 
L 9.078125 54.6875 
L 18.109375 54.6875 
L 18.109375 46.390625 
Q 20.953125 51.265625 25.265625 53.625 
Q 29.59375 56 35.59375 56 
Q 45.5625 56 51.78125 48.09375 
Q 58.015625 40.1875 58.015625 27.296875 
Q 58.015625 14.40625 51.78125 6.484375 
Q 45.5625 -1.421875 35.59375 -1.421875 
Q 29.59375 -1.421875 25.265625 0.953125 
Q 20.953125 3.328125 18.109375 8.203125 
z
M 48.6875 27.296875 
Q 48.6875 37.203125 44.609375 42.84375 
Q 40.53125 48.484375 33.40625 48.484375 
Q 26.265625 48.484375 22.1875 42.84375 
Q 18.109375 37.203125 18.109375 27.296875 
Q 18.109375 17.390625 22.1875 11.75 
Q 26.265625 6.109375 33.40625 6.109375 
Q 40.53125 6.109375 44.609375 11.75 
Q 48.6875 17.390625 48.6875 27.296875 
z
" id="DejaVuSans-112"/>
      <path d="M 48.78125 52.59375 
L 48.78125 44.1875 
Q 44.96875 46.296875 41.140625 47.34375 
Q 37.3125 48.390625 33.40625 48.390625 
Q 24.65625 48.390625 19.8125 42.84375 
Q 14.984375 37.3125 14.984375 27.296875 
Q 14.984375 17.28125 19.8125 11.734375 
Q 24.65625 6.203125 33.40625 6.203125 
Q 37.3125 6.203125 41.140625 7.25 
Q 44.96875 8.296875 48.78125 10.40625 
L 48.78125 2.09375 
Q 45.015625 0.34375 40.984375 -0.53125 
Q 36.96875 -1.421875 32.421875 -1.421875 
Q 20.0625 -1.421875 12.78125 6.34375 
Q 5.515625 14.109375 5.515625 27.296875 
Q 5.515625 40.671875 12.859375 48.328125 
Q 20.21875 56 33.015625 56 
Q 37.15625 56 41.109375 55.140625 
Q 45.0625 54.296875 48.78125 52.59375 
z
" id="DejaVuSans-99"/>
     </defs>
     <g transform="translate(18.737188 426.889281)rotate(-90)scale(0.1 -0.1)">
      <use xlink:href="#DejaVuSans-68"/>
      <use x="77.001953" xlink:href="#DejaVuSans-101"/>
      <use x="138.525391" xlink:href="#DejaVuSans-110"/>
      <use x="201.904297" xlink:href="#DejaVuSans-115"/>
      <use x="254.003906" xlink:href="#DejaVuSans-105"/>
      <use x="281.787109" xlink:href="#DejaVuSans-116"/>
      <use x="320.996094" xlink:href="#DejaVuSans-121"/>
      <use x="380.175781" xlink:href="#DejaVuSans-32"/>
      <use x="411.962891" xlink:href="#DejaVuSans-111"/>
      <use x="473.144531" xlink:href="#DejaVuSans-102"/>
      <use x="508.349609" xlink:href="#DejaVuSans-32"/>
      <use x="540.136719" xlink:href="#DejaVuSans-114"/>
      <use x="579" xlink:href="#DejaVuSans-101"/>
      <use x="640.523438" xlink:href="#DejaVuSans-116"/>
      <use x="679.732422" xlink:href="#DejaVuSans-97"/>
      <use x="741.011719" xlink:href="#DejaVuSans-105"/>
      <use x="768.794922" xlink:href="#DejaVuSans-110"/>
      <use x="832.173828" xlink:href="#DejaVuSans-101"/>
      <use x="893.697266" xlink:href="#DejaVuSans-100"/>
      <use x="957.173828" xlink:href="#DejaVuSans-32"/>
      <use x="988.960938" xlink:href="#DejaVuSans-100"/>
      <use x="1052.4375" xlink:href="#DejaVuSans-117"/>
      <use x="1115.816406" xlink:href="#DejaVuSans-112"/>
      <use x="1179.292969" xlink:href="#DejaVuSans-108"/>
      <use x="1207.076172" xlink:href="#DejaVuSans-105"/>
      <use x="1234.859375" xlink:href="#DejaVuSans-99"/>
      <use x="1289.839844" xlink:href="#DejaVuSans-97"/>
      <use x="1351.119141" xlink:href="#DejaVuSans-116"/>
      <use x="1390.328125" xlink:href="#DejaVuSans-101"/>
      <use x="1451.851562" xlink:href="#DejaVuSans-115"/>
     </g>
    </g>
   </g>
   <g id="line2d_16">
    <path clip-path="url(#p99e657275f)" d="M -1 669.719687 
L -0.171044 669.68739 
L 5.651551 669.788734 
L 14.385445 670.362057 
L 23.119339 670.897902 
L 28.941935 671.101055 
L 34.76453 671.136521 
L 40.587126 670.94851 
L 46.409722 670.518016 
L 58.054914 669.44972 
L 60.966212 669.334797 
L 66.788807 669.451739 
L 75.522701 669.921262 
L 78.433999 669.84553 
L 81.345297 669.52192 
L 84.256595 668.910877 
L 87.167893 668.017343 
L 90.079191 666.893964 
L 98.813084 663.181771 
L 101.724382 662.213196 
L 104.63568 661.517793 
L 107.546978 661.116673 
L 110.458276 660.98172 
L 116.280872 661.18307 
L 119.19217 661.290502 
L 122.103468 661.248373 
L 125.014765 660.972195 
L 127.926063 660.417298 
L 130.837361 659.575754 
L 133.748659 658.461211 
L 136.659957 657.088562 
L 139.571255 655.456595 
L 142.482553 653.53893 
L 145.393851 651.283817 
L 148.305149 648.619864 
L 151.216447 645.464331 
L 154.127744 641.732816 
L 157.039042 637.351596 
L 159.95034 632.27403 
L 162.861638 626.4991 
L 165.772936 620.085083 
L 168.684234 613.148218 
L 174.50683 598.294603 
L 180.329426 582.669378 
L 183.240723 574.369171 
L 186.152021 565.402195 
L 189.063319 555.434089 
L 191.974617 544.151771 
L 194.885915 531.323624 
L 197.797213 516.824411 
L 200.708511 500.616918 
L 203.619809 482.703244 
L 206.531107 463.076184 
L 209.442405 441.705377 
L 212.353702 418.578875 
L 215.265 393.792549 
L 221.087596 340.725132 
L 226.910192 287.95026 
L 229.82149 263.999572 
L 232.732788 242.729198 
L 235.644086 224.573296 
L 238.555384 209.626251 
L 241.466682 197.697691 
L 244.377979 188.42525 
L 247.289277 181.405223 
L 250.200575 176.30528 
L 253.111873 172.936458 
L 256.023171 171.2747 
L 258.934469 171.431681 
L 261.845767 173.582987 
L 264.757065 177.872324 
L 267.668363 184.320715 
L 270.579661 192.771845 
L 273.490958 202.89287 
L 276.402256 214.227847 
L 290.958746 274.085304 
L 293.870044 284.996314 
L 299.69264 305.582587 
L 320.071725 375.132759 
L 325.894321 396.04495 
L 337.539512 438.580045 
L 340.45081 448.6369 
L 343.362108 458.15961 
L 346.273406 467.049565 
L 349.184704 475.256739 
L 352.096002 482.774161 
L 355.0073 489.630863 
L 357.918598 495.889433 
L 360.829895 501.648015 
L 366.652491 512.232496 
L 372.475087 522.682579 
L 375.386385 528.198325 
L 381.208981 539.975266 
L 389.942875 558.094842 
L 392.854172 563.616594 
L 395.76547 568.571965 
L 398.676768 572.802351 
L 401.588066 576.212621 
L 404.499364 578.803467 
L 407.410662 580.681123 
L 410.32196 582.034256 
L 416.144556 584.034706 
L 419.055854 585.028296 
L 421.967151 586.146209 
L 424.878449 587.421126 
L 427.789747 588.862407 
L 430.701045 590.472636 
L 433.612343 592.248461 
L 439.434939 596.183083 
L 445.257535 600.135346 
L 448.168833 601.870372 
L 451.08013 603.338535 
L 453.991428 604.501289 
L 456.902726 605.34642 
L 459.814024 605.873944 
L 462.725322 606.091129 
L 465.63662 606.024103 
L 471.459216 605.347691 
L 474.370514 605.001468 
L 477.281812 604.842714 
L 480.193109 604.963795 
L 483.104407 605.377707 
L 488.927003 606.773212 
L 491.838301 607.508904 
L 494.749599 608.11399 
L 497.660897 608.51244 
L 500.572195 608.672484 
L 503.483493 608.605875 
L 506.394791 608.359411 
L 512.217386 607.583382 
L 520.95128 606.192177 
L 523.862578 605.587179 
L 526.773876 604.849082 
L 532.596472 603.029798 
L 538.419068 601.240244 
L 541.330365 600.564787 
L 547.152961 599.65608 
L 550.064259 599.225296 
L 552.975557 598.637756 
L 555.886855 597.808071 
L 558.798153 596.7249 
L 564.620749 594.071097 
L 570.443344 591.439231 
L 573.354642 590.353329 
L 576.26594 589.514653 
L 579.177238 588.982316 
L 582.088536 588.798218 
L 584.999834 588.974077 
L 587.911132 589.483208 
L 590.82243 590.263809 
L 596.645026 592.315223 
L 602.467621 594.643462 
L 605.378919 595.929199 
L 608.290217 597.403872 
L 611.201515 599.179806 
L 614.112813 601.347523 
L 617.024111 603.932676 
L 619.935409 606.87167 
L 628.669302 616.297145 
L 634.491898 622.046198 
L 640.314494 627.807182 
L 646.13709 634.133581 
L 649.048388 637.302656 
L 651.959686 640.184429 
L 654.870984 642.518974 
L 657.782282 644.07558 
L 660.693579 644.693831 
L 663.604877 644.308973 
L 666.516175 642.961375 
L 669.427473 640.790683 
L 672.338771 638.014253 
L 683.983963 625.543708 
L 692.717856 616.998461 
L 698.540452 610.773309 
L 701.45175 607.598317 
L 704.363048 604.594828 
L 707.274346 601.917902 
L 710.185644 599.65251 
L 713.096942 597.794345 
L 716.00824 596.268491 
L 721 594.155329 
L 721 594.155329 
" style="fill:none;stroke:#000000;stroke-linecap:square;"/>
   </g>
   <g id="line2d_17">
    <path clip-path="url(#p99e657275f)" d="M -1 671.375886 
L 28.941935 672.231757 
L 49.32102 672.786378 
L 58.054914 672.830938 
L 66.788807 672.656853 
L 75.522701 672.192976 
L 81.345297 671.687597 
L 87.167893 671.000723 
L 92.990488 670.111273 
L 98.813084 668.998167 
L 104.63568 667.640326 
L 110.458276 666.016669 
L 116.280872 664.106116 
L 122.103468 661.887588 
L 127.926063 659.297944 
L 130.837361 657.794273 
L 133.748659 656.105795 
L 136.659957 654.198328 
L 139.571255 652.037693 
L 142.482553 649.589706 
L 145.393851 646.820189 
L 148.305149 643.694958 
L 151.216447 640.179834 
L 154.127744 636.240635 
L 157.039042 631.84318 
L 159.95034 626.953287 
L 162.861638 621.536777 
L 165.772936 615.559467 
L 168.684234 608.987177 
L 171.595532 601.785725 
L 174.50683 593.920931 
L 177.418128 585.358613 
L 180.329426 576.06459 
L 183.240723 566.004681 
L 186.152021 555.144705 
L 189.063319 543.450481 
L 191.974617 530.887827 
L 194.885915 517.422564 
L 197.797213 503.020509 
L 200.708511 487.647481 
L 203.619809 471.269299 
L 206.531107 453.851783 
L 209.442405 435.360751 
L 212.353702 415.762022 
L 218.176298 373.639427 
L 226.910192 308.310941 
L 229.82149 287.430199 
L 232.732788 267.608547 
L 235.644086 249.212814 
L 238.555384 232.560881 
L 241.466682 217.774839 
L 244.377979 204.927836 
L 247.289277 194.093017 
L 250.200575 185.343528 
L 253.111873 178.752515 
L 256.023171 174.393123 
L 258.934469 172.338498 
L 261.845767 172.614909 
L 264.757065 175.061111 
L 267.668363 179.468982 
L 270.579661 185.6304 
L 273.490958 193.337243 
L 276.402256 202.381388 
L 279.313554 212.554714 
L 282.224852 223.649098 
L 285.13615 235.465461 
L 290.958746 260.621535 
L 302.603937 312.718852 
L 308.426533 337.410566 
L 314.249129 360.688761 
L 320.071725 382.596395 
L 325.894321 403.176429 
L 331.716916 422.471821 
L 337.539512 440.52553 
L 343.362108 457.380517 
L 349.184704 473.07974 
L 355.0073 487.666158 
L 360.829895 501.182731 
L 366.652491 513.672418 
L 372.475087 525.178179 
L 378.297683 535.742973 
L 381.208981 540.685932 
L 384.120279 545.409758 
L 387.031577 549.919823 
L 389.942875 554.221495 
L 392.854172 558.320145 
L 395.76547 562.220949 
L 398.676768 565.928307 
L 401.588066 569.446427 
L 404.499364 572.779516 
L 407.410662 575.93178 
L 410.32196 578.907428 
L 413.233258 581.710665 
L 416.144556 584.345699 
L 419.055854 586.816738 
L 421.967151 589.127987 
L 424.878449 591.283655 
L 427.789747 593.287948 
L 430.701045 595.145073 
L 433.612343 596.859238 
L 436.523641 598.434649 
L 439.434939 599.875513 
L 442.346237 601.186038 
L 445.257535 602.37043 
L 451.08013 604.377647 
L 456.902726 605.930818 
L 462.725322 607.063601 
L 468.547918 607.809652 
L 474.370514 608.202627 
L 480.193109 608.276184 
L 486.015705 608.063978 
L 491.838301 607.599666 
L 497.660897 606.916904 
L 503.483493 606.04935 
L 512.217386 604.475155 
L 523.862578 602.04358 
L 544.241663 597.62941 
L 552.975557 595.970202 
L 558.798153 595.025731 
L 564.620749 594.24986 
L 570.443344 593.676246 
L 576.26594 593.339887 
L 582.088536 593.306639 
L 584.999834 593.43382 
L 587.911132 593.673216 
L 590.82243 594.037081 
L 593.733728 594.537675 
L 596.645026 595.187252 
L 599.556323 595.998071 
L 602.467621 596.982389 
L 605.378919 598.152462 
L 608.290217 599.520548 
L 611.201515 601.098903 
L 614.112813 602.899785 
L 617.024111 604.93545 
L 619.935409 607.218156 
L 622.846707 609.748576 
L 628.669302 615.358334 
L 640.314494 627.170696 
L 643.225792 629.913373 
L 646.13709 632.457398 
L 649.048388 634.745527 
L 651.959686 636.720516 
L 654.870984 638.32512 
L 657.782282 639.502097 
L 660.693579 640.194202 
L 663.604877 640.344192 
L 666.516175 639.913727 
L 669.427473 638.940082 
L 672.338771 637.479437 
L 675.250069 635.587971 
L 678.161367 633.321864 
L 681.072665 630.737295 
L 683.983963 627.890444 
L 689.806558 621.634613 
L 701.45175 608.447458 
L 704.363048 605.337655 
L 707.274346 602.415006 
L 710.185644 599.735689 
L 713.096942 597.355885 
L 716.00824 595.331772 
L 718.919537 593.71953 
L 721 592.901872 
L 721 592.901872 
" style="fill:none;stroke:#0000ff;stroke-linecap:square;"/>
   </g>
   <g id="line2d_18">
    <path clip-path="url(#p99e657275f)" d="M 661.035127 675.592 
L 661.035127 27.79125 
" style="fill:none;stroke:#ff0000;stroke-dasharray:3.7,1.6;stroke-dashoffset:0;"/>
   </g>
   <g id="patch_73">
    <path d="M 47.72 675.592 
L 47.72 27.79125 
" style="fill:none;stroke:#000000;stroke-linecap:square;stroke-linejoin:miter;stroke-width:0.8;"/>
   </g>
   <g id="patch_74">
    <path d="M 697.4599 675.592 
L 697.4599 27.79125 
" style="fill:none;stroke:#000000;stroke-linecap:square;stroke-linejoin:miter;stroke-width:0.8;"/>
   </g>
   <g id="patch_75">
    <path d="M 47.72 675.592 
L 697.4599 675.592 
" style="fill:none;stroke:#000000;stroke-linecap:square;stroke-linejoin:miter;stroke-width:0.8;"/>
   </g>
   <g id="patch_76">
    <path d="M 47.72 27.79125 
L 697.4599 27.79125 
" style="fill:none;stroke:#000000;stroke-linecap:square;stroke-linejoin:miter;stroke-width:0.8;"/>
   </g>
   <g id="text_18">
    <!-- KDE and spline of log-transformed $K_\mathrm{S}$ of species Trebouxia_sp._Hap2.cds-transcripts.fa.tsv.ks.tsv -->
    <defs>
     <path d="M 9.8125 72.90625 
L 19.671875 72.90625 
L 19.671875 42.09375 
L 52.390625 72.90625 
L 65.09375 72.90625 
L 28.90625 38.921875 
L 67.671875 0 
L 54.6875 0 
L 19.671875 35.109375 
L 19.671875 0 
L 9.8125 0 
z
" id="DejaVuSans-75"/>
     <path d="M 9.8125 72.90625 
L 55.90625 72.90625 
L 55.90625 64.59375 
L 19.671875 64.59375 
L 19.671875 43.015625 
L 54.390625 43.015625 
L 54.390625 34.71875 
L 19.671875 34.71875 
L 19.671875 8.296875 
L 56.78125 8.296875 
L 56.78125 0 
L 9.8125 0 
z
" id="DejaVuSans-69"/>
     <path d="M 45.40625 27.984375 
Q 45.40625 37.75 41.375 43.109375 
Q 37.359375 48.484375 30.078125 48.484375 
Q 22.859375 48.484375 18.828125 43.109375 
Q 14.796875 37.75 14.796875 27.984375 
Q 14.796875 18.265625 18.828125 12.890625 
Q 22.859375 7.515625 30.078125 7.515625 
Q 37.359375 7.515625 41.375 12.890625 
Q 45.40625 18.265625 45.40625 27.984375 
z
M 54.390625 6.78125 
Q 54.390625 -7.171875 48.1875 -13.984375 
Q 42 -20.796875 29.203125 -20.796875 
Q 24.46875 -20.796875 20.265625 -20.09375 
Q 16.0625 -19.390625 12.109375 -17.921875 
L 12.109375 -9.1875 
Q 16.0625 -11.328125 19.921875 -12.34375 
Q 23.78125 -13.375 27.78125 -13.375 
Q 36.625 -13.375 41.015625 -8.765625 
Q 45.40625 -4.15625 45.40625 5.171875 
L 45.40625 9.625 
Q 42.625 4.78125 38.28125 2.390625 
Q 33.9375 0 27.875 0 
Q 17.828125 0 11.671875 7.65625 
Q 5.515625 15.328125 5.515625 27.984375 
Q 5.515625 40.671875 11.671875 48.328125 
Q 17.828125 56 27.875 56 
Q 33.9375 56 38.28125 53.609375 
Q 42.625 51.21875 45.40625 46.390625 
L 45.40625 54.6875 
L 54.390625 54.6875 
z
" id="DejaVuSans-103"/>
     <path d="M 4.890625 31.390625 
L 31.203125 31.390625 
L 31.203125 23.390625 
L 4.890625 23.390625 
z
" id="DejaVuSans-45"/>
     <path d="M 52 44.1875 
Q 55.375 50.25 60.0625 53.125 
Q 64.75 56 71.09375 56 
Q 79.640625 56 84.28125 50.015625 
Q 88.921875 44.046875 88.921875 33.015625 
L 88.921875 0 
L 79.890625 0 
L 79.890625 32.71875 
Q 79.890625 40.578125 77.09375 44.375 
Q 74.3125 48.1875 68.609375 48.1875 
Q 61.625 48.1875 57.5625 43.546875 
Q 53.515625 38.921875 53.515625 30.90625 
L 53.515625 0 
L 44.484375 0 
L 44.484375 32.71875 
Q 44.484375 40.625 41.703125 44.40625 
Q 38.921875 48.1875 33.109375 48.1875 
Q 26.21875 48.1875 22.15625 43.53125 
Q 18.109375 38.875 18.109375 30.90625 
L 18.109375 0 
L 9.078125 0 
L 9.078125 54.6875 
L 18.109375 54.6875 
L 18.109375 46.1875 
Q 21.1875 51.21875 25.484375 53.609375 
Q 29.78125 56 35.6875 56 
Q 41.65625 56 45.828125 52.96875 
Q 50 49.953125 52 44.1875 
z
" id="DejaVuSans-109"/>
     <path d="M -0.296875 72.90625 
L 61.375 72.90625 
L 61.375 64.59375 
L 35.5 64.59375 
L 35.5 0 
L 25.59375 0 
L 25.59375 64.59375 
L -0.296875 64.59375 
z
" id="DejaVuSans-84"/>
     <path d="M 48.6875 27.296875 
Q 48.6875 37.203125 44.609375 42.84375 
Q 40.53125 48.484375 33.40625 48.484375 
Q 26.265625 48.484375 22.1875 42.84375 
Q 18.109375 37.203125 18.109375 27.296875 
Q 18.109375 17.390625 22.1875 11.75 
Q 26.265625 6.109375 33.40625 6.109375 
Q 40.53125 6.109375 44.609375 11.75 
Q 48.6875 17.390625 48.6875 27.296875 
z
M 18.109375 46.390625 
Q 20.953125 51.265625 25.265625 53.625 
Q 29.59375 56 35.59375 56 
Q 45.5625 56 51.78125 48.09375 
Q 58.015625 40.1875 58.015625 27.296875 
Q 58.015625 14.40625 51.78125 6.484375 
Q 45.5625 -1.421875 35.59375 -1.421875 
Q 29.59375 -1.421875 25.265625 0.953125 
Q 20.953125 3.328125 18.109375 8.203125 
L 18.109375 0 
L 9.078125 0 
L 9.078125 75.984375 
L 18.109375 75.984375 
z
" id="DejaVuSans-98"/>
     <path d="M 54.890625 54.6875 
L 35.109375 28.078125 
L 55.90625 0 
L 45.3125 0 
L 29.390625 21.484375 
L 13.484375 0 
L 2.875 0 
L 24.125 28.609375 
L 4.6875 54.6875 
L 15.28125 54.6875 
L 29.78125 35.203125 
L 44.28125 54.6875 
z
" id="DejaVuSans-120"/>
     <path d="M 50.984375 -16.609375 
L 50.984375 -23.578125 
L -0.984375 -23.578125 
L -0.984375 -16.609375 
z
" id="DejaVuSans-95"/>
     <path d="M 9.8125 72.90625 
L 19.671875 72.90625 
L 19.671875 43.015625 
L 55.515625 43.015625 
L 55.515625 72.90625 
L 65.375 72.90625 
L 65.375 0 
L 55.515625 0 
L 55.515625 34.71875 
L 19.671875 34.71875 
L 19.671875 0 
L 9.8125 0 
z
" id="DejaVuSans-72"/>
     <path d="M 2.984375 54.6875 
L 12.5 54.6875 
L 29.59375 8.796875 
L 46.6875 54.6875 
L 56.203125 54.6875 
L 35.6875 0 
L 23.484375 0 
z
" id="DejaVuSans-118"/>
     <path d="M 9.078125 75.984375 
L 18.109375 75.984375 
L 18.109375 31.109375 
L 44.921875 54.6875 
L 56.390625 54.6875 
L 27.390625 29.109375 
L 57.625 0 
L 45.90625 0 
L 18.109375 26.703125 
L 18.109375 0 
L 9.078125 0 
z
" id="DejaVuSans-107"/>
    </defs>
    <g transform="translate(81.64995 21.79125)scale(0.12 -0.12)">
     <use transform="translate(0 0.015625)" xlink:href="#DejaVuSans-75"/>
     <use transform="translate(65.576172 0.015625)" xlink:href="#DejaVuSans-68"/>
     <use transform="translate(142.578125 0.015625)" xlink:href="#DejaVuSans-69"/>
     <use transform="translate(205.761719 0.015625)" xlink:href="#DejaVuSans-32"/>
     <use transform="translate(237.548828 0.015625)" xlink:href="#DejaVuSans-97"/>
     <use transform="translate(298.828125 0.015625)" xlink:href="#DejaVuSans-110"/>
     <use transform="translate(362.207031 0.015625)" xlink:href="#DejaVuSans-100"/>
     <use transform="translate(425.683594 0.015625)" xlink:href="#DejaVuSans-32"/>
     <use transform="translate(457.470703 0.015625)" xlink:href="#DejaVuSans-115"/>
     <use transform="translate(509.570312 0.015625)" xlink:href="#DejaVuSans-112"/>
     <use transform="translate(573.046875 0.015625)" xlink:href="#DejaVuSans-108"/>
     <use transform="translate(600.830078 0.015625)" xlink:href="#DejaVuSans-105"/>
     <use transform="translate(628.613281 0.015625)" xlink:href="#DejaVuSans-110"/>
     <use transform="translate(691.992188 0.015625)" xlink:href="#DejaVuSans-101"/>
     <use transform="translate(753.515625 0.015625)" xlink:href="#DejaVuSans-32"/>
     <use transform="translate(785.302734 0.015625)" xlink:href="#DejaVuSans-111"/>
     <use transform="translate(846.484375 0.015625)" xlink:href="#DejaVuSans-102"/>
     <use transform="translate(881.689453 0.015625)" xlink:href="#DejaVuSans-32"/>
     <use transform="translate(913.476562 0.015625)" xlink:href="#DejaVuSans-108"/>
     <use transform="translate(941.259766 0.015625)" xlink:href="#DejaVuSans-111"/>
     <use transform="translate(1002.441406 0.015625)" xlink:href="#DejaVuSans-103"/>
     <use transform="translate(1065.917969 0.015625)" xlink:href="#DejaVuSans-45"/>
     <use transform="translate(1102.001953 0.015625)" xlink:href="#DejaVuSans-116"/>
     <use transform="translate(1141.210938 0.015625)" xlink:href="#DejaVuSans-114"/>
     <use transform="translate(1182.324219 0.015625)" xlink:href="#DejaVuSans-97"/>
     <use transform="translate(1243.603516 0.015625)" xlink:href="#DejaVuSans-110"/>
     <use transform="translate(1306.982422 0.015625)" xlink:href="#DejaVuSans-115"/>
     <use transform="translate(1359.082031 0.015625)" xlink:href="#DejaVuSans-102"/>
     <use transform="translate(1394.287109 0.015625)" xlink:href="#DejaVuSans-111"/>
     <use transform="translate(1455.46875 0.015625)" xlink:href="#DejaVuSans-114"/>
     <use transform="translate(1496.582031 0.015625)" xlink:href="#DejaVuSans-109"/>
     <use transform="translate(1593.994141 0.015625)" xlink:href="#DejaVuSans-101"/>
     <use transform="translate(1655.517578 0.015625)" xlink:href="#DejaVuSans-100"/>
     <use transform="translate(1718.994141 0.015625)" xlink:href="#DejaVuSans-32"/>
     <use transform="translate(1750.78125 0.015625)" xlink:href="#DejaVuSans-Oblique-75"/>
     <use transform="translate(1816.357422 -16.390625)scale(0.7)" xlink:href="#DejaVuSans-83"/>
     <use transform="translate(1863.525391 0.015625)" xlink:href="#DejaVuSans-32"/>
     <use transform="translate(1895.3125 0.015625)" xlink:href="#DejaVuSans-111"/>
     <use transform="translate(1956.494141 0.015625)" xlink:href="#DejaVuSans-102"/>
     <use transform="translate(1991.699219 0.015625)" xlink:href="#DejaVuSans-32"/>
     <use transform="translate(2023.486328 0.015625)" xlink:href="#DejaVuSans-115"/>
     <use transform="translate(2075.585938 0.015625)" xlink:href="#DejaVuSans-112"/>
     <use transform="translate(2139.0625 0.015625)" xlink:href="#DejaVuSans-101"/>
     <use transform="translate(2200.585938 0.015625)" xlink:href="#DejaVuSans-99"/>
     <use transform="translate(2255.566406 0.015625)" xlink:href="#DejaVuSans-105"/>
     <use transform="translate(2283.349609 0.015625)" xlink:href="#DejaVuSans-101"/>
     <use transform="translate(2344.873047 0.015625)" xlink:href="#DejaVuSans-115"/>
     <use transform="translate(2396.972656 0.015625)" xlink:href="#DejaVuSans-32"/>
     <use transform="translate(2428.759766 0.015625)" xlink:href="#DejaVuSans-84"/>
     <use transform="translate(2489.84375 0.015625)" xlink:href="#DejaVuSans-114"/>
     <use transform="translate(2530.957031 0.015625)" xlink:href="#DejaVuSans-101"/>
     <use transform="translate(2592.480469 0.015625)" xlink:href="#DejaVuSans-98"/>
     <use transform="translate(2655.957031 0.015625)" xlink:href="#DejaVuSans-111"/>
     <use transform="translate(2717.138672 0.015625)" xlink:href="#DejaVuSans-117"/>
     <use transform="translate(2780.517578 0.015625)" xlink:href="#DejaVuSans-120"/>
     <use transform="translate(2839.697266 0.015625)" xlink:href="#DejaVuSans-105"/>
     <use transform="translate(2867.480469 0.015625)" xlink:href="#DejaVuSans-97"/>
     <use transform="translate(2928.759766 0.015625)" xlink:href="#DejaVuSans-95"/>
     <use transform="translate(2978.759766 0.015625)" xlink:href="#DejaVuSans-115"/>
     <use transform="translate(3030.859375 0.015625)" xlink:href="#DejaVuSans-112"/>
     <use transform="translate(3094.335938 0.015625)" xlink:href="#DejaVuSans-46"/>
     <use transform="translate(3126.123047 0.015625)" xlink:href="#DejaVuSans-95"/>
     <use transform="translate(3176.123047 0.015625)" xlink:href="#DejaVuSans-72"/>
     <use transform="translate(3251.318359 0.015625)" xlink:href="#DejaVuSans-97"/>
     <use transform="translate(3312.597656 0.015625)" xlink:href="#DejaVuSans-112"/>
     <use transform="translate(3376.074219 0.015625)" xlink:href="#DejaVuSans-50"/>
     <use transform="translate(3439.697266 0.015625)" xlink:href="#DejaVuSans-46"/>
     <use transform="translate(3471.484375 0.015625)" xlink:href="#DejaVuSans-99"/>
     <use transform="translate(3526.464844 0.015625)" xlink:href="#DejaVuSans-100"/>
     <use transform="translate(3589.941406 0.015625)" xlink:href="#DejaVuSans-115"/>
     <use transform="translate(3642.041016 0.015625)" xlink:href="#DejaVuSans-45"/>
     <use transform="translate(3678.125 0.015625)" xlink:href="#DejaVuSans-116"/>
     <use transform="translate(3717.333984 0.015625)" xlink:href="#DejaVuSans-114"/>
     <use transform="translate(3758.447266 0.015625)" xlink:href="#DejaVuSans-97"/>
     <use transform="translate(3819.726562 0.015625)" xlink:href="#DejaVuSans-110"/>
     <use transform="translate(3883.105469 0.015625)" xlink:href="#DejaVuSans-115"/>
     <use transform="translate(3935.205078 0.015625)" xlink:href="#DejaVuSans-99"/>
     <use transform="translate(3990.185547 0.015625)" xlink:href="#DejaVuSans-114"/>
     <use transform="translate(4031.298828 0.015625)" xlink:href="#DejaVuSans-105"/>
     <use transform="translate(4059.082031 0.015625)" xlink:href="#DejaVuSans-112"/>
     <use transform="translate(4122.558594 0.015625)" xlink:href="#DejaVuSans-116"/>
     <use transform="translate(4161.767578 0.015625)" xlink:href="#DejaVuSans-115"/>
     <use transform="translate(4213.867188 0.015625)" xlink:href="#DejaVuSans-46"/>
     <use transform="translate(4245.654297 0.015625)" xlink:href="#DejaVuSans-102"/>
     <use transform="translate(4280.859375 0.015625)" xlink:href="#DejaVuSans-97"/>
     <use transform="translate(4342.138672 0.015625)" xlink:href="#DejaVuSans-46"/>
     <use transform="translate(4373.925781 0.015625)" xlink:href="#DejaVuSans-116"/>
     <use transform="translate(4413.134766 0.015625)" xlink:href="#DejaVuSans-115"/>
     <use transform="translate(4465.234375 0.015625)" xlink:href="#DejaVuSans-118"/>
     <use transform="translate(4524.414062 0.015625)" xlink:href="#DejaVuSans-46"/>
     <use transform="translate(4556.201172 0.015625)" xlink:href="#DejaVuSans-107"/>
     <use transform="translate(4614.111328 0.015625)" xlink:href="#DejaVuSans-115"/>
     <use transform="translate(4666.210938 0.015625)" xlink:href="#DejaVuSans-46"/>
     <use transform="translate(4697.998047 0.015625)" xlink:href="#DejaVuSans-116"/>
     <use transform="translate(4737.207031 0.015625)" xlink:href="#DejaVuSans-115"/>
     <use transform="translate(4789.306641 0.015625)" xlink:href="#DejaVuSans-118"/>
    </g>
   </g>
   <g id="legend_1">
    <g id="line2d_19">
     <path d="M 58.52 43.509375 
L 82.52 43.509375 
" style="fill:none;stroke:#000000;stroke-linecap:square;"/>
    </g>
    <g id="line2d_20"/>
    <g id="text_19">
     <!-- KDE -->
     <g transform="translate(92.12 47.709375)scale(0.12 -0.12)">
      <use xlink:href="#DejaVuSans-75"/>
      <use x="65.576172" xlink:href="#DejaVuSans-68"/>
      <use x="142.578125" xlink:href="#DejaVuSans-69"/>
     </g>
    </g>
    <g id="line2d_21">
     <path d="M 58.52 61.123125 
L 82.52 61.123125 
" style="fill:none;stroke:#0000ff;stroke-linecap:square;"/>
    </g>
    <g id="line2d_22"/>
    <g id="text_20">
     <!-- Spline on KDE -->
     <g transform="translate(92.12 65.323125)scale(0.12 -0.12)">
      <use xlink:href="#DejaVuSans-83"/>
      <use x="63.476562" xlink:href="#DejaVuSans-112"/>
      <use x="126.953125" xlink:href="#DejaVuSans-108"/>
      <use x="154.736328" xlink:href="#DejaVuSans-105"/>
      <use x="182.519531" xlink:href="#DejaVuSans-110"/>
      <use x="245.898438" xlink:href="#DejaVuSans-101"/>
      <use x="307.421875" xlink:href="#DejaVuSans-32"/>
      <use x="339.208984" xlink:href="#DejaVuSans-111"/>
      <use x="400.390625" xlink:href="#DejaVuSans-110"/>
      <use x="463.769531" xlink:href="#DejaVuSans-32"/>
      <use x="495.556641" xlink:href="#DejaVuSans-75"/>
      <use x="561.132812" xlink:href="#DejaVuSans-68"/>
      <use x="638.134766" xlink:href="#DejaVuSans-69"/>
     </g>
    </g>
    <g id="line2d_23">
     <path d="M 58.52 78.736875 
L 82.52 78.736875 
" style="fill:none;stroke:#ff0000;stroke-dasharray:3.7,1.6;stroke-dashoffset:0;"/>
    </g>
    <g id="line2d_24"/>
    <g id="text_21">
     <!-- Reflection boundary -->
     <defs>
      <path d="M 44.390625 34.1875 
Q 47.5625 33.109375 50.5625 29.59375 
Q 53.5625 26.078125 56.59375 19.921875 
L 66.609375 0 
L 56 0 
L 46.6875 18.703125 
Q 43.0625 26.03125 39.671875 28.421875 
Q 36.28125 30.8125 30.421875 30.8125 
L 19.671875 30.8125 
L 19.671875 0 
L 9.8125 0 
L 9.8125 72.90625 
L 32.078125 72.90625 
Q 44.578125 72.90625 50.734375 67.671875 
Q 56.890625 62.453125 56.890625 51.90625 
Q 56.890625 45.015625 53.6875 40.46875 
Q 50.484375 35.9375 44.390625 34.1875 
z
M 19.671875 64.796875 
L 19.671875 38.921875 
L 32.078125 38.921875 
Q 39.203125 38.921875 42.84375 42.21875 
Q 46.484375 45.515625 46.484375 51.90625 
Q 46.484375 58.296875 42.84375 61.546875 
Q 39.203125 64.796875 32.078125 64.796875 
z
" id="DejaVuSans-82"/>
     </defs>
     <g transform="translate(92.12 82.936875)scale(0.12 -0.12)">
      <use xlink:href="#DejaVuSans-82"/>
      <use x="64.982422" xlink:href="#DejaVuSans-101"/>
      <use x="126.505859" xlink:href="#DejaVuSans-102"/>
      <use x="161.710938" xlink:href="#DejaVuSans-108"/>
      <use x="189.494141" xlink:href="#DejaVuSans-101"/>
      <use x="251.017578" xlink:href="#DejaVuSans-99"/>
      <use x="305.998047" xlink:href="#DejaVuSans-116"/>
      <use x="345.207031" xlink:href="#DejaVuSans-105"/>
      <use x="372.990234" xlink:href="#DejaVuSans-111"/>
      <use x="434.171875" xlink:href="#DejaVuSans-110"/>
      <use x="497.550781" xlink:href="#DejaVuSans-32"/>
      <use x="529.337891" xlink:href="#DejaVuSans-98"/>
      <use x="592.814453" xlink:href="#DejaVuSans-111"/>
      <use x="653.996094" xlink:href="#DejaVuSans-117"/>
      <use x="717.375" xlink:href="#DejaVuSans-110"/>
      <use x="780.753906" xlink:href="#DejaVuSans-100"/>
      <use x="844.230469" xlink:href="#DejaVuSans-97"/>
      <use x="905.509766" xlink:href="#DejaVuSans-114"/>
      <use x="946.623047" xlink:href="#DejaVuSans-121"/>
     </g>
    </g>
   </g>
  </g>
 </g>
 <defs>
  <clipPath id="p99e657275f">
   <rect height="647.80075" width="649.7399" x="47.72" y="27.79125"/>
  </clipPath>
 </defs>
</svg>
